<svg xmlns="http://www.w3.org/2000/svg" xml:space="preserve" width="125" height="125" fill="#6495ED">
  <path fill-rule="evenodd" d="M61.44 0c33.933 0 61.441 27.507 61.441 61.439 0 33.933-27.508 61.44-61.441 61.44C27.508 122.88 0 95.372 0 61.439 0 27.507 27.508 0 61.44 0zM34.106 67.678l-.015-.014a3.867 3.867 0 0 1-1.256-2.669 3.864 3.864 0 0 1 .984-2.777l.029-.031a3.867 3.867 0 0 1 2.668-1.256 3.866 3.866 0 0 1 2.792.998l12.956 11.748 31.089-32.559a3.872 3.872 0 0 1 2.719-1.204 3.87 3.87 0 0 1 2.771 1.067v.001a3.873 3.873 0 0 1 1.205 2.718 3.873 3.873 0 0 1-1.068 2.773L55.279 81.769a.762.762 0 0 1-.073.067 3.866 3.866 0 0 1-2.598 1.13 3.858 3.858 0 0 1-2.744-1L34.118 67.688l-.012-.01z" clip-rule="evenodd"/>
</svg>
